# AST/ASF file generated using VICON BodyLanguage
# -----------------------------------------------
:version 1.10
:name VICON
:units
  mass 1.0
  length 0.45
  angle deg
:documentation
   .ast/.asf automatically generated from VICON data using
   VICON BodyBuilder and BodyLanguage model FoxedUp or BRILLIANT.MOD
:root
   order TX TY TZ RX RY RZ
   axis XYZ
   position 0 0 0  
   orientation 0 0 0 
:bonedata
  begin
     id 1 
     name lhipjoint
     direction 0.603808 -0.713975 0.35448 
     length 2.2025 
     axis 0 0 0  XYZ
  end
  begin
     id 2 
     name lfemur
     direction 0.34202 -0.939693 0  
     length 6.55877  
     axis 0 0 20  XYZ
    dof rx ry rz
    limits (-160.0 20.0)
           (-70.0 70.0)
           (-60.0 70.0)
  end
  begin
     id 3 
     name ltibia
     direction 0.34202 -0.939693 0   
     length 6.80302   
     axis 0 0 20   XYZ
    dof rx
    limits (-10.0 170.0)
  end
  begin
     id 4 
     name lfoot
     direction 0.091848 -0.25235 0.963267   
     length 2.03446   
     axis -90 7.62852e-016 20   XYZ
    dof rx rz
    limits (-45.0 90.0)
           (-70.0 20.0)
  end
  begin
     id 5 
     name ltoes
     direction 1.53608e-011 -4.21925e-011 1   
     length 1.02033   
     axis -90 7.62852e-016 20   XYZ
    dof rx
    limits (-90.0 20.0)
  end
  begin
     id 6 
     name rhipjoint
     direction -0.587285 -0.724947 0.359928   
     length 2.16916  
     axis 0 0 0  XYZ 
  end
  begin
     id 7 
     name rfemur
     direction -0.34202 -0.939693 0   
     length 6.43173   
     axis 0 0 -20   XYZ
    dof rx ry rz
    limits (-160.0 20.0)
           (-70.0 70.0)
           (-70.0 60.0)
  end
  begin
     id 8 
     name rtibia
     direction -0.34202 -0.939693 0   
     length 6.70662   
     axis 0 0 -20   XYZ
    dof rx
    limits (-10.0 170.0)
 end
 begin
     id 9 
     name rfoot
     direction -0.11854 -0.325686 0.938018   
     length 2.0773  
     axis -90 -7.62852e-016 -20   XYZ
    dof rx rz
    limits (-45.0 90.0)
           (-20.0 70.0)
  end
  begin
     id 10 
     name rtoes
     direction -1.53547e-011 -4.21838e-011 1   
     length 1.03267   
     axis -90 -7.62852e-016 -20   XYZ
    dof rx
    limits (-90.0 20.0)
  end
  begin
     id 11 
     name lowerback
     direction -0.0286554 0.999539 0.0100613   
     length 2.08751   
     axis 0 0 0   XYZ
    dof rx ry rz
    limits (-20.0 45.0)
           (-30.0 30.0)
           (-30.0 30.0)
  end
  begin
     id 12 
     name upperback
     direction 0.0227093 0.999705 -0.00860929   
     length 2.08517   
     axis 0 0 0   XYZ
    dof rx ry rz
    limits (-20.0 45.0)
           (-30.0 30.0)
           (-30.0 30.0)
  end
  begin
     id 13 
     name thorax
     direction 0.0351627 0.999285 -0.013892   
     length 2.08412   
     axis 0 0 0   XYZ
    dof rx ry rz
    limits (-20.0 45.0)
           (-30.0 30.0)
           (-30.0 30.0)
  end
  begin
     id 14 
     name lowerneck
     direction -0.0696283 0.997344 0.0213922   
     length 1.44164   
     axis 0 0 0   XYZ
    dof rx ry rz
    limits (-20.0 45.0)
           (-30.0 30.0)
           (-30.0 30.0)
  end
  begin
     id 15 
     name upperneck
     direction 0.0531 0.990412 -0.127531   
     length 1.45022   
     axis 0 0 0   XYZ
    dof rx ry rz
    limits (-20.0 45.0)
           (-30.0 30.0)
           (-30.0 30.0)
  end
  begin
     id 16
     name head
     direction 0.0188154 0.998548 -0.0504727  
     length 1.45845  
     axis 0 0 0   XYZ
    dof rx ry rz
    limits (-20.0 45.0)
           (-30.0 30.0)
           (-30.0 30.0)
  end
  begin
     id 17 
     name lclavicle
     direction 0.961559 0.260051 0.088188  
     length 2.86057  
     axis 0 0 0   XYZ
    dof ry rz
    limits (-20.0 10.0)
           (0.0 20.0)
  end
  begin
     id 18 
     name lhumerus
     direction 1 -4.48959e-011 2.88185e-027   
     length 4.36901   
     axis 180 -30 -90   XYZ
    dof rx ry rz
    limits (-60.0 90.0)
           (-90.0 90.0)
           (-90.0 90.0)
  end
  begin
     id 19
     name lradius
     direction 1 -4.48965e-011 -3.92618e-028   
     length 3.21737   
     axis 180 -30 -90   XYZ
    dof rx
    limits (-10.0 170.0)
  end
  begin
     id 20
     name lwrist
     direction 1 -4.49037e-011 2.57246e-027   
     length 1.60869   
     axis -1.61769e-015 90 90   XYZ
    dof ry
    limits (-180.0 0.0)
 end
  begin
     id 21 
     name lhand
     direction 1 -4.48807e-011 5.12958e-027   
     length 0.564313   
     axis -3.27988e-015 90 90   XYZ
    dof rx rz
    limits (-90.0 90.0)
           (-45.0 45.0)
  end
  begin
     id 22 
     name lfingers
     direction 1 -4.48879e-011 1.02687e-026   
     length 0.454963   
     axis -6.5598e-015 90 90   XYZ
    dof rx
    limits (0.0 90.0)
  end
  begin
     id 23
     name lthumb
     direction 0.707107 -6.3475e-011 0.707107   
     length 0.653239   
     axis -90 45 2.19363e-014   XYZ
    dof rx rz
    limits (-45.0 45.0)
           (-45.0 45.0)
  end
  begin
     id 24 
     name rclavicle
     direction -0.954677 0.253915 0.155304   
     length 3.11497  
     axis 0 0 0   XYZ 
    dof ry rz
    limits (-10.0 20.0)
           (-20.0 0.0)
  end
  begin
     id 25 
     name rhumerus
     direction -1 -4.48958e-011 -8.20169e-028  
     length 4.34118   
     axis 180 30 90   XYZ
    dof rx ry rz
    limits (-90.0 60.0)
           (-90.0 90.0)
           (-90.0 90.0)
  end
  begin
     id 26 
     name rradius
     direction -1 -4.48978e-011 1.5676e-027   
     length 3.09531   
     axis 180 30 90   XYZ
    dof rx
    limits (-10.0 170.0)
  end
  begin
     id 27 
     name rwrist
     direction -1 -4.49001e-011 2.57123e-027   
     length 1.54765   
     axis -1.61769e-015 -90 -90   XYZ
    dof ry
    limits (-180.0 0.0)
  end
  begin
     id 28
     name rhand
     direction -1 -4.48847e-011 5.13225e-027   
     length 0.597446   
     axis -3.27988e-015 -90 -90   XYZ
    dof rx rz
    limits (-90.0 90.0)
           (-45.0 45.0)
  end
  begin
     id 29
     name rfingers
     direction -1 -4.49094e-011 1.02974e-026   
     length 0.481677   
     axis -6.5598e-015 -90 -90   XYZ
    dof rx
    limits (0.0 90.0)
  end
  begin
     id 30
     name rthumb
     direction -0.707107 -6.34859e-011 0.707107   
     length 0.691594   
     axis -90 -45 -2.19363e-014   XYZ
    dof rx rz
    limits (-45.0 45.0)
           (-45.0 45.0)
  end
:hierarchy
  begin
    root lhipjoint rhipjoint lowerback
    lhipjoint lfemur
    lfemur ltibia
    ltibia lfoot
    lfoot ltoes
    rhipjoint rfemur
    rfemur rtibia
    rtibia rfoot
    rfoot rtoes
    lowerback upperback
    upperback thorax
    thorax lowerneck lclavicle rclavicle
    lowerneck upperneck
    upperneck head
    lclavicle lhumerus
    lhumerus lradius
    lradius lwrist
    lwrist lhand lthumb
    lhand lfingers
    rclavicle rhumerus
    rhumerus rradius
    rradius rwrist
    rwrist rhand rthumb
    rhand rfingers
  end

#!OML:ASF G:\acrobat\cartwheel_test 2\Patient 1\Session 1\acrobat.ASF
:FULLY-SPECIFIED
:DEGREES
306
root 7.64881 14.5539 -0.352057 -8.93906 -0.263583 1.30499
lowerback -1.51804 -1.6953 -4.25902
upperback 0.717729 -2.20459 2.17101
thorax 1.83845 -1.16706 4.55979
lowerneck -1.24458 -14.4078 -14.2136
upperneck 13.0102 -19.8099 7.26349
head 6.2965 -9.99301 2.97065
rclavicle -3.08116e-015 4.77083e-015
rhumerus 46.8666 5.44488 -65.0588
rradius 20.2803
rwrist 29.2304
rhand -4.2537 30.9802
rfingers 7.12502
rthumb 21.5103 2.15458
lclavicle -3.08116e-015 4.77083e-015
lhumerus 41.1662 -15.6891 42.0766
lradius 29.2495
lwrist 13.7558
lhand -4.10651 42.6529
lfingers 7.12502
lthumb 21.6517 71.4623
rfemur -10.4595 -6.84636 11.4797
rtibia 52.8881
rfoot -30.5232 -15.6095
rtoes -15.2424
lfemur -13.6969 5.17456 -9.86424
ltibia 54.9537
lfoot -25.5306 11.5669
ltoes -15.24
307
root 7.64874 14.5536 -0.350769 -8.92853 -0.26878 1.27544
lowerback -1.52314 -1.68007 -4.20528
upperback 0.721782 -2.18512 2.16611
thorax 1.84099 -1.15677 4.5248
lowerneck -1.2852 -14.4355 -14.1065
upperneck 13.0195 -19.8358 7.1775
head 6.28917 -10.0043 2.92539
rclavicle -5.66536e-015 -1.59028e-015
rhumerus 46.8808 5.34278 -65.1369
rradius 20.1982
rwrist 29.3166
rhand -4.26068 31.068
rfingers 7.12502
rthumb 21.5036 2.2416
lclavicle -5.66536e-015 -1.59028e-015
lhumerus 41.2308 -15.7375 42.045
lradius 29.2395
lwrist 13.7779
lhand -4.12139 42.6627
lfingers 7.12502
lthumb 21.6374 71.4737
rfemur -10.4775 -6.83797 11.5144
rtibia 52.8968
rfoot -30.5085 -15.6108
rtoes -15.3994
lfemur -13.7102 5.18375 -9.82856
ltibia 54.9702
lfoot -25.568 11.5261
ltoes -15.0803
308
root 7.64847 14.5529 -0.348426 -8.93719 -0.289909 1.31748
lowerback -1.54203 -1.68945 -4.25646
upperback 0.746994 -2.19599 2.17906
thorax 1.88141 -1.16449 4.56587
lowerneck -1.32566 -14.4148 -14.1413
upperneck 13.0238 -19.8084 7.23141
head 6.30336 -9.98828 2.94566
rclavicle 1.68967e-015 7.15625e-015
rhumerus 46.938 5.36611 -65.1554
rradius 20.1692
rwrist 29.345
rhand -4.28073 31.1076
rfingers 7.12502
rthumb 21.4844 2.27898
lclavicle 1.68967e-015 7.15625e-015
lhumerus 41.2158 -15.6628 42.0904
lradius 29.2046
lwrist 13.7698
lhand -4.15895 42.6601
lfingers 7.12502
lthumb 21.6013 71.4753
rfemur -10.4798 -6.81577 11.4625
rtibia 52.9276
rfoot -30.4301 -15.5547
rtoes -15.4151
lfemur -13.6717 5.18059 -9.87792
ltibia 54.9457
lfoot -25.5689 11.477
ltoes -14.7709
309
root 7.64903 14.5523 -0.346019 -8.93856 -0.287359 1.40356
lowerback -1.57082 -1.70139 -4.34669
upperback 0.76635 -2.20881 2.181
thorax 1.92272 -1.17351 4.61732
lowerneck -1.34743 -14.3892 -14.2283
upperneck 13.0599 -19.7815 7.31955
head 6.33354 -9.97352 2.98288
rclavicle -1.46107e-014 -2.38542e-015
rhumerus 46.9674 5.32763 -65.2327
rradius 20.1751
rwrist 29.5162
rhand -4.32434 31.1502
rfingers 7.12502
rthumb 21.4425 2.31689
lclavicle -1.46107e-014 -2.38542e-015
lhumerus 41.194 -15.6133 42.1117
lradius 29.196
lwrist 13.7846
lhand -4.07459 42.7728
lfingers 7.12502
lthumb 21.6823 71.5787
rfemur -10.4657 -6.83134 11.3513
rtibia 52.946
rfoot -30.4223 -15.5593
rtoes -15.4127
lfemur -13.6405 5.17253 -9.98746
ltibia 54.9131
lfoot -25.4892 11.5115
ltoes -14.8522
310
root 7.6493 14.5528 -0.344996 -8.94834 -0.273557 1.44752
lowerback -1.56726 -1.67683 -4.37132
upperback 0.777322 -2.17503 2.1543
thorax 1.92809 -1.15707 4.60476
lowerneck -1.26256 -14.4019 -14.2275
upperneck 13.0273 -19.8215 7.40508
head 6.32206 -9.99074 3.01102
rclavicle -1.0635e-014 -6.36111e-015
rhumerus 46.9169 5.23894 -65.2135
rradius 20.2019
rwrist 29.526
rhand -4.36311 31.1548
rfingers 7.12502
rthumb 21.4052 2.31724
lclavicle -1.0635e-014 -6.36111e-015
lhumerus 41.2768 -15.7031 42.0281
lradius 29.2348
lwrist 13.9115
lhand -3.98678 42.8829
lfingers 7.12502
lthumb 21.7667 71.679
rfemur -10.4365 -6.85762 11.3017
rtibia 52.9373
rfoot -30.3424 -15.7135
rtoes -15.8235
lfemur -13.6211 5.17589 -10.0387
ltibia 54.9042
lfoot -25.4629 11.5497
ltoes -15.0276
311
root 7.64834 14.5542 -0.344912 -8.96559 -0.243711 1.45098
lowerback -1.54166 -1.65949 -4.37555
upperback 0.780941 -2.1525 2.14151
thorax 1.91453 -1.14548 4.59542
lowerneck -1.14314 -14.4214 -14.256
upperneck 12.9881 -19.8799 7.53114
head 6.31205 -10.0171 3.05541
rclavicle 1.2921e-015 0
rhumerus 46.8517 5.27344 -65.044
rradius 20.2243
rwrist 29.298
rhand -4.4569 31.1618
rfingers 7.12502
rthumb 21.3152 2.31405
lclavicle 1.2921e-015 0
lhumerus 41.3552 -15.7716 41.9894
lradius 29.2433
lwrist 13.9492
lhand -3.95478 42.7351
lfingers 7.12502
lthumb 21.7974 71.5276
rfemur -10.3861 -6.87874 11.2976
rtibia 52.918
rfoot -30.2365 -15.7686
rtoes -16.0718
lfemur -13.6036 5.17281 -10.0335
ltibia 54.895
lfoot -25.4809 11.5566
ltoes -15.2181
312
root 7.64694 14.555 -0.343952 -8.9745 -0.225117 1.45606
lowerback -1.53587 -1.67841 -4.41094
upperback 0.787726 -2.17773 2.17074
thorax 1.92375 -1.1592 4.64497
lowerneck -1.1415 -14.4164 -14.3948
upperneck 13.0485 -19.886 7.63094
head 6.35637 -10.0207 3.09934
rclavicle -2.22639e-014 2.54444e-014
rhumerus 46.859 5.36539 -64.9685
rradius 20.2249
rwrist 29.2348
rhand -4.56855 31.1775
rfingers 7.12502
rthumb 21.2079 2.31764
lclavicle -2.22639e-014 2.54444e-014
lhumerus 41.3309 -15.6917 42.0814
lradius 29.2026
lwrist 13.8412
lhand -3.96081 42.4965
lfingers 7.12502
lthumb 21.7916 71.2896
rfemur -10.3495 -6.87193 11.2869
rtibia 52.8963
rfoot -30.3598 -15.6377
rtoes -15.4233
lfemur -13.5822 5.17879 -10.0239
ltibia 54.8756
lfoot -25.491 11.5289
ltoes -15.3972
